<svg width="115" height="37" viewBox="0 0 115 37" fill="none" xmlns="http://www.w3.org/2000/svg">
<path d="M23.9583 6.08219L43.125 17.2329L35.1389 27.3699L23.9583 10.137L12.2454 27.3699H9.05093L23.9583 6.08219Z" fill="white"/>
<path d="M92.6389 6.08219L73.4722 17.2329L81.4583 27.3699L92.6389 10.137L104.352 27.3699H107.546L92.6389 6.08219Z" fill="white"/>
<path d="M85.7176 33.4521L115 37H81.9907L58.5648 7.09589L34.6065 37H0L30.8796 33.4521L44.7222 16.726L58.5648 0L85.7176 33.4521Z" fill="white"/>
<path d="M70.2778 24.3288L58.5648 14.5672L46.8518 24.3288L58.5648 11.1507L70.2778 24.3288Z" fill="white"/>
<path d="M52.1759 25.3425H56.4352V29.3973H52.1759V25.3425Z" fill="white"/>
<path d="M52.1759 32.4384H56.4352V36.4932H52.1759V32.4384Z" fill="white"/>
<path d="M59.6296 32.4384H63.8889V36.4932H59.6296V32.4384Z" fill="white"/>
<path d="M59.6296 25.3425H63.8889V29.3973H59.6296V25.3425Z" fill="white"/>
</svg>
