<svg width="187" height="60" viewBox="0 0 187 60" fill="none" xmlns="http://www.w3.org/2000/svg">
<path d="M38.8514 9.86301L69.9324 27.9452L56.982 44.3836L38.8514 16.4384L19.8574 44.3836H14.6772L38.8514 9.86301Z" fill="#231F20"/>
<path d="M150.225 9.86301L119.144 27.9452L132.095 44.3836L150.225 16.4384L169.219 44.3836H174.399L150.225 9.86301Z" fill="#726658"/>
<path d="M139.002 54.2466L186.486 60H132.958L94.97 11.5068L56.1186 60H0L50.0751 54.2466L72.5225 27.1233L94.97 0L139.002 54.2466Z" fill="#594A42"/>
<path d="M113.964 39.4521L94.97 23.6225L75.976 39.4521L94.97 18.0822L113.964 39.4521Z" fill="#1C75BC"/>
<path d="M84.6096 41.0959H91.5165V47.6712H84.6096V41.0959Z" fill="#231F20"/>
<path d="M84.6096 52.6027H91.5165V59.1781H84.6096V52.6027Z" fill="#231F20"/>
<path d="M96.6967 52.6027H103.604V59.1781H96.6967V52.6027Z" fill="#231F20"/>
<path d="M96.6967 41.0959H103.604V47.6712H96.6967V41.0959Z" fill="#231F20"/>
</svg>
